<?xml version="1.0" encoding="UTF-8" standalone="no"?>
<!-- Created with Inkscape (http://www.inkscape.org/) -->

<svg
   xmlns:dc="http://purl.org/dc/elements/1.1/"
   xmlns:cc="http://creativecommons.org/ns#"
   xmlns:rdf="http://www.w3.org/1999/02/22-rdf-syntax-ns#"
   xmlns:svg="http://www.w3.org/2000/svg"
   xmlns="http://www.w3.org/2000/svg"
   xmlns:sodipodi="http://sodipodi.sourceforge.net/DTD/sodipodi-0.dtd"
   xmlns:inkscape="http://www.inkscape.org/namespaces/inkscape"
   width="32.528191mm"
   height="32.528191mm"
   viewBox="0 0 32.528191 32.52819"
   version="1.1"
   id="svg8"
   inkscape:version="0.92.3 (5aff6ba, 2018-11-25)"
   sodipodi:docname="enemy_running.svg">
  <defs
     id="defs2" />
  <sodipodi:namedview
     id="base"
     pagecolor="#ffffff"
     bordercolor="#666666"
     borderopacity="1.0"
     inkscape:pageopacity="0.0"
     inkscape:pageshadow="2"
     inkscape:zoom="1.4142136"
     inkscape:cx="99.627969"
     inkscape:cy="-9.0669114"
     inkscape:document-units="mm"
     inkscape:current-layer="layer1"
     showgrid="false"
     fit-margin-top="1"
     fit-margin-left="1"
     fit-margin-right="1"
     fit-margin-bottom="1"
     inkscape:window-width="1366"
     inkscape:window-height="704"
     inkscape:window-x="0"
     inkscape:window-y="27"
     inkscape:window-maximized="1" />
  <metadata
     id="metadata5">
    <rdf:RDF>
      <cc:Work
         rdf:about="">
        <dc:format>image/svg+xml</dc:format>
        <dc:type
           rdf:resource="http://purl.org/dc/dcmitype/StillImage" />
        <dc:title />
      </cc:Work>
    </rdf:RDF>
  </metadata>
  <g
     inkscape:label="Camada 1"
     inkscape:groupmode="layer"
     id="layer1"
     transform="translate(-25.026501,-43.665292)">
    <path
       sodipodi:nodetypes="csc"
       inkscape:connector-curvature="0"
       id="path843"
       d="m 41.975714,64.968078 c 3.230397,-0.331582 8.22413,4.320804 7.78187,5.295307 -0.442259,0.974504 -5.888453,-2.031751 -9.383433,-1.766315"
       style="fill:#808080;fill-opacity:1;stroke:#000000;stroke-width:1;stroke-miterlimit:4;stroke-dasharray:none;stroke-opacity:1" />
    <path
       style="fill:#b3b3b3;fill-opacity:1;stroke:#000000;stroke-width:1;stroke-miterlimit:4;stroke-dasharray:none;stroke-opacity:1"
       d="m 43.720614,64.516268 c 0,3.284298 -2.034064,4.789194 -5.318362,4.789194 -3.284298,0 -2.176436,-1.074949 -2.176436,-4.359247 0,-3.284298 1.253242,-9.855062 4.53754,-9.855061 3.284297,0 2.957258,6.140816 2.957258,9.425114 z"
       id="path830"
       inkscape:connector-curvature="0"
       sodipodi:nodetypes="sssss" />
    <path
       sodipodi:nodetypes="ccc"
       inkscape:connector-curvature="0"
       id="path2762"
       d="m 42.795509,59.843075 c 1.615928,-0.632323 6.466591,-2.168341 6.737585,-1.475797 0.271,0.692537 -4.692647,3.929166 -6.308574,4.56149"
       style="fill:#4d4d4d;fill-opacity:1;stroke:#000000;stroke-width:1;stroke-linecap:round;stroke-miterlimit:4;stroke-dasharray:none;stroke-opacity:1" />
    <path
       style="fill:#b3b3b3;fill-opacity:1;stroke:#000000;stroke-width:1;stroke-linecap:round;stroke-miterlimit:4;stroke-dasharray:none;stroke-opacity:1"
       d="m 42.03267,60.804154 c 1.880511,0.02913 6.334299,0.609783 6.605293,1.302327 0.271,0.692537 -4.917349,2.409787 -6.176282,1.783366"
       id="path845"
       inkscape:connector-curvature="0"
       sodipodi:nodetypes="ccc" />
    <path
       style="fill:#b3b3b3;fill-opacity:1;stroke:#000000;stroke-width:1;stroke-miterlimit:4;stroke-dasharray:none;stroke-opacity:1"
       d="m 48.089264,51.915312 c 0,4.465169 -1.581804,6.548104 -3.808591,7.450139 -2.308845,0.935275 -5.291075,0.810764 -7.160315,-0.703308 -1.481296,-1.19984 -2.62843,-4.739339 -2.62843,-6.713422 0,-4.465168 2.95156,-7.750814 7.416728,-7.750815 4.465168,0 6.180608,3.252238 6.180608,7.717406 z"
       id="path828"
       inkscape:connector-curvature="0"
       sodipodi:nodetypes="ssssss" />
    <path
       style="fill:#b3b3b3;fill-opacity:1;stroke:#000000;stroke-width:1;stroke-linecap:round;stroke-miterlimit:4;stroke-dasharray:none;stroke-opacity:1"
       d="m 39.387534,68.901818 c -2.246186,2.047033 -8.644634,0.818309 -9.331898,-0.002 -0.687264,-0.820316 4.872808,-1.213158 6.843093,-2.968621"
       id="path832"
       inkscape:connector-curvature="0"
       sodipodi:nodetypes="csc" />
    <path
       style="fill:none;stroke:#000000;stroke-width:0.5;stroke-linecap:round;stroke-linejoin:miter;stroke-miterlimit:4;stroke-dasharray:none;stroke-opacity:1"
       d="m 42.767825,51.189218 c 1.343138,-1.200601 2.219138,-1.924113 4.054505,0.136306"
       id="path2760"
       inkscape:connector-curvature="0"
       sodipodi:nodetypes="cc" />
  </g>
</svg>
