<?xml version="1.0" encoding="UTF-8" standalone="no"?>
<!-- Created with Inkscape (http://www.inkscape.org/) -->

<svg
   xmlns:dc="http://purl.org/dc/elements/1.1/"
   xmlns:cc="http://creativecommons.org/ns#"
   xmlns:rdf="http://www.w3.org/1999/02/22-rdf-syntax-ns#"
   xmlns:svg="http://www.w3.org/2000/svg"
   xmlns="http://www.w3.org/2000/svg"
   xmlns:sodipodi="http://sodipodi.sourceforge.net/DTD/sodipodi-0.dtd"
   xmlns:inkscape="http://www.inkscape.org/namespaces/inkscape"
   width="94.511055mm"
   height="91.060265mm"
   viewBox="0 0 94.511056 91.060264"
   version="1.1"
   id="svg2127"
   inkscape:version="0.92.3 (d244b95, 2018-08-02)"
   sodipodi:docname="fireball_0.svg">
  <defs
     id="defs2121" />
  <sodipodi:namedview
     id="base"
     pagecolor="#ffffff"
     bordercolor="#666666"
     borderopacity="1.0"
     inkscape:pageopacity="0.0"
     inkscape:pageshadow="2"
     inkscape:zoom="0.35"
     inkscape:cx="155.10022"
     inkscape:cy="286.5319"
     inkscape:document-units="mm"
     inkscape:current-layer="layer1"
     showgrid="false"
     inkscape:snap-global="false"
     fit-margin-top="1"
     fit-margin-left="1"
     fit-margin-right="1"
     fit-margin-bottom="1"
     inkscape:window-width="1299"
     inkscape:window-height="704"
     inkscape:window-x="67"
     inkscape:window-y="27"
     inkscape:window-maximized="1" />
  <metadata
     id="metadata2124">
    <rdf:RDF>
      <cc:Work
         rdf:about="">
        <dc:format>image/svg+xml</dc:format>
        <dc:type
           rdf:resource="http://purl.org/dc/dcmitype/StillImage" />
        <dc:title />
      </cc:Work>
    </rdf:RDF>
  </metadata>
  <g
     inkscape:label="Camada 1"
     inkscape:groupmode="layer"
     id="layer1"
     transform="translate(-8.70443,-12.550585)">
    <path
       style="opacity:1;fill:#b3b3b3;fill-opacity:1;stroke:none;stroke-width:1;stroke-linecap:butt;stroke-linejoin:round;stroke-miterlimit:4;stroke-dasharray:none;stroke-opacity:1"
       d="M 76.216423,13.556157 C 62.853753,15.05409 49.131157,15.160469 36.288688,19.587407 19.052234,26.413178 7.7076852,45.558269 9.9976412,63.955098 11.79303,80.492868 23.848888,95.695828 39.914766,100.43766 c 10.035092,3.03912 20.639487,2.09909 30.959137,1.79546 2.77759,-0.17034 5.80117,-0.15725 8.24701,-1.6038 1.23102,-1.822862 -0.42446,-4.343162 -2.44294,-4.572622 -5.59351,-2.9753 -12.22393,-2.9076 -17.87952,-5.7232 -1.28526,-1.73702 0.10864,-4.21977 1.95703,-4.85742 1.40321,-0.91526 2.42951,-3.21959 0.96357,-4.53192 -3.11373,-3.1598 -7.72614,-3.80541 -11.451838,-5.9669 -2.306538,-1.12256 -4.871347,-2.52852 -5.83964,-5.04293 -0.27238,-3.00487 2.390198,-5.25985 4.936696,-6.26664 1.865592,-1.10209 3.518303,-3.578082 2.313716,-5.71643 -1.507974,-2.921041 -5.441201,-4.036361 -6.125627,-7.46932 -0.775722,-4.159684 3.077864,-8.139671 7.173709,-8.137553 5.965204,-0.879811 12.012494,-0.309939 18.010374,-0.673942 6.86731,-0.08118 13.73605,-0.10318 20.60107,-0.315458 1.42936,-0.919927 0.30479,-3.050199 -1.06323,-3.366812 -4.19758,-2.519144 -9.00877,-3.680072 -13.49124,-5.565533 -2.48568,-0.90652 -4.95561,-1.861263 -7.36936,-2.946561 -0.84551,-1.798949 0.95033,-3.803946 2.76368,-3.861329 7.37307,-3.119205 15.52124,-2.92283 23.35547,-3.568359 0.90515,-1.343542 -0.67748,-2.716752 -1.8302,-3.207467 -5.69498,-2.112331 -11.21709,-5.44296 -17.48621,-5.282767 z"
       id="path2672"
       inkscape:connector-curvature="0"
       sodipodi:nodetypes="sssssssssss" />
    <path
       sodipodi:nodetypes="sssssssssss"
       inkscape:connector-curvature="0"
       id="path2675"
       d="m 79.669193,17.785174 c -11.37155,1.274731 -23.04939,1.365259 -33.978252,5.132555 -14.668113,5.808688 -24.322253,22.101039 -22.373515,37.756625 1.527865,14.073544 11.787324,27.011164 25.459286,31.046434 8.539801,2.58627 17.564071,1.78631 26.346031,1.52792 2.36371,-0.14496 4.93676,-0.13382 7.01815,-1.36482 1.04759,-1.55124 -0.36121,-3.696 -2.07892,-3.89127 -4.76005,-2.53196 -10.40249,-2.47435 -15.21536,-4.87041 -1.09375,-1.47819 0.0924,-3.591 1.66542,-4.13363 1.19412,-0.77888 2.0675,-2.73985 0.81999,-3.85664 -2.64976,-2.68897 -6.5749,-3.23838 -9.74544,-5.07779 -1.96285,-0.95529 -4.14549,-2.15176 -4.969501,-4.2915 -0.23179,-2.55713 2.034041,-4.476104 4.201101,-5.332874 1.58761,-0.93788 2.99405,-3.04493 1.96895,-4.864651 -1.28327,-2.485787 -4.63042,-3.434917 -5.21286,-6.356344 -0.660141,-3.539865 2.61924,-6.926808 6.10477,-6.925006 5.07636,-0.748713 10.22256,-0.263756 15.32672,-0.57352 5.84404,-0.06908 11.68929,-0.08781 17.53138,-0.268453 1.21638,-0.782852 0.25938,-2.5957 -0.9048,-2.865136 -3.57211,-2.143775 -7.66641,-3.131718 -11.48096,-4.736233 -2.1153,-0.771443 -4.21719,-1.583923 -6.27128,-2.507505 -0.71952,-1.530894 0.80873,-3.237134 2.35188,-3.285966 6.27443,-2.654424 13.20847,-2.48731 19.87535,-3.036651 0.77028,-1.143346 -0.57653,-2.311939 -1.55749,-2.729534 -4.84639,-1.79758 -9.54567,-4.631924 -14.88065,-4.495601 z"
       style="opacity:1;fill:#e6e6e6;fill-opacity:1;stroke:none;stroke-width:0.85099363;stroke-linecap:butt;stroke-linejoin:round;stroke-miterlimit:4;stroke-dasharray:none;stroke-opacity:1" />
    <path
       style="opacity:1;fill:#f9f9f9;fill-opacity:1;stroke:none;stroke-width:0.85099363;stroke-linecap:butt;stroke-linejoin:round;stroke-miterlimit:4;stroke-dasharray:none;stroke-opacity:1"
       d="m 85.549123,25.53599 c -11.37155,1.274731 -23.04939,1.365259 -33.978252,5.132555 -14.668113,5.808688 -24.322253,22.101039 -22.373515,37.756623 1.527865,14.07355 11.787324,27.01117 25.459287,31.04644 8.5398,2.586272 17.56407,1.786312 26.34603,1.527922 2.36371,-0.14496 4.93676,-0.13382 7.01815,-1.364822 1.04759,-1.55124 -0.36121,-3.696 -2.07892,-3.89127 -4.76005,-2.53196 -10.40249,-2.47435 -15.21536,-4.87041 -1.09375,-1.47819 0.0924,-3.591 1.66542,-4.13363 1.19412,-0.77888 2.0675,-2.73985 0.81999,-3.85664 -2.64976,-2.68897 -6.5749,-3.23838 -9.74544,-5.07779 -1.96285,-0.95529 -4.14549,-2.15176 -4.9695,-4.2915 -0.23179,-2.55713 2.03404,-4.47611 4.2011,-5.33288 1.58761,-0.93788 2.99405,-3.04493 1.96895,-4.86465 -1.28327,-2.485786 -4.63042,-3.434916 -5.21286,-6.356343 -0.66014,-3.539865 2.61924,-6.926808 6.10477,-6.925006 5.07636,-0.748713 10.22256,-0.263756 15.32672,-0.57352 5.84404,-0.06908 11.68929,-0.08781 17.53138,-0.268453 1.21638,-0.782852 0.25938,-2.5957 -0.9048,-2.865136 -3.57211,-2.143775 -7.66641,-3.131718 -11.48096,-4.736233 -2.1153,-0.771443 -4.21719,-1.583923 -6.27128,-2.507505 -0.71952,-1.530894 0.80873,-3.237134 2.35188,-3.285966 6.27443,-2.654424 13.20847,-2.48731 19.875347,-3.036651 0.77028,-1.143346 -0.57653,-2.311939 -1.55749,-2.729534 -4.846387,-1.79758 -9.545667,-4.631924 -14.880647,-4.495601 z"
       id="path2677"
       inkscape:connector-curvature="0"
       sodipodi:nodetypes="sssssssssss" />
  </g>
</svg>
