<?xml version="1.0" encoding="UTF-8" standalone="no"?>
<!-- Created with Inkscape (http://www.inkscape.org/) -->

<svg
   xmlns:dc="http://purl.org/dc/elements/1.1/"
   xmlns:cc="http://creativecommons.org/ns#"
   xmlns:rdf="http://www.w3.org/1999/02/22-rdf-syntax-ns#"
   xmlns:svg="http://www.w3.org/2000/svg"
   xmlns="http://www.w3.org/2000/svg"
   xmlns:sodipodi="http://sodipodi.sourceforge.net/DTD/sodipodi-0.dtd"
   xmlns:inkscape="http://www.inkscape.org/namespaces/inkscape"
   width="85.115242mm"
   height="91.856064mm"
   viewBox="0 0 85.115243 91.856063"
   version="1.1"
   id="svg2127"
   inkscape:version="0.92.3 (d244b95, 2018-08-02)"
   sodipodi:docname="fireball_1.svg">
  <defs
     id="defs2121" />
  <sodipodi:namedview
     id="base"
     pagecolor="#ffffff"
     bordercolor="#666666"
     borderopacity="1.0"
     inkscape:pageopacity="0.0"
     inkscape:pageshadow="2"
     inkscape:zoom="0.35"
     inkscape:cx="-190.30487"
     inkscape:cy="246.22437"
     inkscape:document-units="mm"
     inkscape:current-layer="layer1"
     showgrid="false"
     inkscape:snap-global="false"
     fit-margin-top="1"
     fit-margin-left="1"
     fit-margin-right="1"
     fit-margin-bottom="1"
     inkscape:window-width="1299"
     inkscape:window-height="704"
     inkscape:window-x="67"
     inkscape:window-y="27"
     inkscape:window-maximized="1" />
  <metadata
     id="metadata2124">
    <rdf:RDF>
      <cc:Work
         rdf:about="">
        <dc:format>image/svg+xml</dc:format>
        <dc:type
           rdf:resource="http://purl.org/dc/dcmitype/StillImage" />
        <dc:title />
      </cc:Work>
    </rdf:RDF>
  </metadata>
  <g
     inkscape:label="Camada 1"
     inkscape:groupmode="layer"
     id="layer1"
     transform="translate(-117.64362,-14.838051)">
    <path
       sodipodi:nodetypes="sssssssssss"
       inkscape:connector-curvature="0"
       id="path2685"
       d="m 168.90234,15.84375 c -10.56705,1.094949 -21.04215,4.15877 -30.12872,9.747717 -6.55513,4.051258 -12.3123,9.65231 -15.77733,16.597323 -4.45599,8.899943 -5.41989,19.368948 -3.21602,29.031461 1.52508,6.717294 4.65779,13.100637 9.27005,18.238773 3.34244,3.784438 7.40154,6.903627 11.83593,9.305014 14.28186,8.000852 32.23449,9.203292 47.38388,2.931972 4.68331,-1.931323 9.12084,-4.540101 12.88221,-7.951869 0.88602,-1.025392 0.81858,-2.8188 -0.3164,-3.636719 -1.73917,-0.553655 -3.58751,-0.26457 -5.36903,-0.152718 -4.69037,0.535181 -9.29531,2.143341 -14.06457,1.732796 -1.0191,-0.06835 -2.03433,-0.184804 -3.04492,-0.332031 -0.58595,0.255679 -0.77176,-0.926796 -0.15039,-0.91211 2.02038,-1.287656 4.14632,-2.406549 6.37582,-3.287147 4.79485,-1.953639 9.94822,-3.247392 14.23695,-6.260932 0.66205,-0.462653 1.29472,-0.966883 1.89895,-1.502702 0.33509,-0.754124 -0.43368,-1.45668 -1.12321,-1.596491 -1.99207,-0.846165 -4.27102,-0.331593 -6.11849,0.638949 -5.29659,2.043434 -11.10457,2.216568 -16.69642,1.700315 -3.74389,-0.425591 -7.40655,-1.449056 -10.88219,-2.893163 -1.03839,-1.112072 -0.6582,-2.987689 0.42187,-3.933594 1.45944,-1.682605 4.12428,-2.182139 6.07422,-1.085938 6.38746,0.978168 13.15092,-0.214982 18.67188,-3.623047 0.8095,-1.162834 0.28969,-2.700353 -0.45847,-3.753131 -1.45937,-2.188774 -4.1126,-3.238171 -6.64982,-3.470402 -3.50456,-0.546836 -7.19677,-0.877599 -10.29812,-2.755001 -0.74746,-0.471722 -1.43062,-1.053978 -1.97836,-1.749981 -0.0482,-2.003666 0.038,-4.012191 -0.12068,-6.011625 0.0363,-1.692247 1.0661,-3.288559 2.55781,-4.072486 2.76019,-1.880525 5.94937,-2.960068 8.99055,-4.283513 1.24125,-0.501094 2.49129,-0.97998 3.73834,-1.466361 0.48564,-0.500604 0.17103,-1.452785 -0.49414,-1.611328 -1.80902,-1.196307 -3.95996,-2.030796 -5.27735,-3.83789 -0.33618,-0.833371 0.57886,-1.823299 1.43555,-1.554688 1.26066,0.03809 2.64472,-0.16578 3.58984,-1.076172 0.92359,-1.611926 -0.10981,-3.635139 0.90352,-5.22086 0.58384,-1.153285 1.56395,-2.306221 1.31523,-3.68539 -0.37914,-1.811568 -1.99136,-2.966102 -3.46052,-3.898485 -3.03741,-1.931779 -6.6572,-2.485244 -10.1059,-3.260491 -1.92655,-0.454607 -3.8457,-1.122305 -5.85155,-1.048055 z"
       style="opacity:1;fill:#b3b3b3;fill-opacity:1;stroke:none;stroke-width:1;stroke-linecap:butt;stroke-linejoin:round;stroke-miterlimit:4;stroke-dasharray:none;stroke-opacity:1" />
    <path
       style="opacity:1;fill:#e6e6e6;fill-opacity:1;stroke:none;stroke-width:0.8691256;stroke-linecap:butt;stroke-linejoin:round;stroke-miterlimit:4;stroke-dasharray:none;stroke-opacity:1"
       d="m 173.10899,20.653857 c -9.18409,0.951648 -18.28827,3.614493 -26.18564,8.47199 -5.69723,3.521052 -10.70094,8.38907 -13.71248,14.425158 -3.87282,7.735168 -4.71057,16.834049 -2.79513,25.231986 1.32549,5.838172 4.04821,11.386099 8.05684,15.851784 2.905,3.289152 6.43287,6.000119 10.28691,8.087226 12.41273,6.953733 28.01582,7.998799 41.18254,2.548248 4.07039,-1.678558 7.92716,-3.945914 11.19626,-6.911169 0.77006,-0.891194 0.71145,-2.449891 -0.27499,-3.160765 -1.51156,-0.481196 -3.118,-0.229945 -4.66636,-0.132732 -4.07652,0.46514 -8.0788,1.862833 -12.22388,1.506018 -0.88573,-0.0594 -1.76809,-0.160618 -2.64642,-0.288577 -0.50926,0.222217 -0.67076,-0.805502 -0.13071,-0.792738 1.75597,-1.119135 3.60368,-2.091593 5.54139,-2.856944 4.16733,-1.697957 8.64625,-2.822391 12.3737,-5.441536 0.5754,-0.402103 1.12527,-0.840343 1.65042,-1.306037 0.29124,-0.655428 -0.37692,-1.266037 -0.97621,-1.387551 -1.73135,-0.735423 -3.71205,-0.288196 -5.31773,0.555327 -4.6034,1.776001 -9.65127,1.926476 -14.51129,1.477788 -3.25391,-0.369893 -6.43722,-1.259412 -9.45799,-2.514522 -0.90249,-0.966531 -0.57206,-2.596677 0.36666,-3.418788 1.26844,-1.462395 3.58452,-1.896553 5.27926,-0.943816 5.55151,0.850151 11.4298,-0.186847 16.22821,-3.148883 0.70356,-1.010649 0.25178,-2.346946 -0.39847,-3.261942 -1.26837,-1.90232 -3.57436,-2.814378 -5.77953,-3.016215 -3.0459,-0.47527 -6.25489,-0.762744 -8.95036,-2.394442 -0.64963,-0.409986 -1.24339,-0.91604 -1.71944,-1.520954 -0.0419,-1.741437 0.033,-3.487097 -0.10489,-5.224857 0.0315,-1.470775 0.92658,-2.858171 2.22306,-3.539502 2.39895,-1.634412 5.17075,-2.57267 7.81392,-3.72291 1.0788,-0.435514 2.16524,-0.851726 3.24909,-1.274452 0.42208,-0.435088 0.14864,-1.262653 -0.42947,-1.400447 -1.57227,-1.039741 -3.44171,-1.765016 -4.58668,-3.335608 -0.29219,-0.724304 0.5031,-1.584676 1.24767,-1.351219 1.09567,0.0331 2.29859,-0.144084 3.12002,-0.935329 0.80272,-1.400966 -0.0954,-3.159392 0.78527,-4.537583 0.50743,-1.002349 1.35927,-2.004395 1.1431,-3.203067 -0.32952,-1.57448 -1.73074,-2.577915 -3.00762,-3.388273 -2.63989,-1.678958 -5.78595,-2.159989 -8.7833,-2.833776 -1.67441,-0.39511 -3.3424,-0.975424 -5.08573,-0.910891 z"
       id="path2701"
       inkscape:connector-curvature="0"
       sodipodi:nodetypes="sssssssssss" />
    <path
       sodipodi:nodetypes="sssssssssss"
       inkscape:connector-curvature="0"
       id="path2703"
       d="m 174.28331,24.604428 c -7.68897,0.796725 -15.31104,3.026074 -21.92277,7.092799 -4.76975,2.947845 -8.95889,7.023378 -11.48016,12.076826 -3.24235,6.475928 -3.94372,14.093564 -2.3401,21.124366 1.1097,4.887751 3.38918,9.532508 6.74523,13.271205 2.43208,2.753697 5.38564,5.023335 8.61226,6.770673 10.39201,5.821704 23.45501,6.696643 34.47826,2.133408 3.40776,-1.405299 6.63667,-3.303542 9.37358,-5.786071 0.64469,-0.746113 0.59563,-2.051063 -0.23023,-2.646211 -1.26548,-0.40286 -2.6104,-0.192511 -3.9067,-0.111124 -3.41289,0.389418 -6.76362,1.559575 -10.2339,1.260847 -0.74154,-0.04973 -1.48026,-0.13447 -2.2156,-0.241598 -0.42636,0.186041 -0.56157,-0.674371 -0.10943,-0.663685 1.4701,-0.936946 3.01702,-1.751094 4.63928,-2.39185 3.48891,-1.42154 7.23869,-2.362922 10.35933,-4.555686 0.48173,-0.336643 0.94209,-0.70354 1.38175,-1.093421 0.24382,-0.548729 -0.31556,-1.059934 -0.81729,-1.161666 -1.4495,-0.615701 -3.10775,-0.24128 -4.45204,0.464923 -3.85399,1.486878 -8.0801,1.612857 -12.14893,1.237212 -2.7242,-0.309676 -5.38928,-1.054387 -7.91829,-2.105172 -0.75557,-0.809185 -0.47893,-2.173953 0.30697,-2.862229 1.06195,-1.224326 3.00098,-1.587805 4.41983,-0.790168 4.64775,0.711751 9.56909,-0.15643 13.58635,-2.636264 0.58902,-0.846121 0.21079,-1.964876 -0.3336,-2.730916 -1.06189,-1.592634 -2.99248,-2.356214 -4.83866,-2.525193 -2.55004,-0.397899 -5.23663,-0.638574 -7.49329,-2.004641 -0.54387,-0.343242 -1.04097,-0.766914 -1.43953,-1.273351 -0.0351,-1.457942 0.0276,-2.919418 -0.0878,-4.374281 0.0264,-1.231341 0.77574,-2.392877 1.86116,-2.963292 2.00841,-1.368339 4.32898,-2.153854 6.54186,-3.116842 0.90318,-0.364614 1.81275,-0.71307 2.72015,-1.066978 0.35337,-0.364258 0.12445,-1.057101 -0.35955,-1.172463 -1.31631,-0.870477 -2.88142,-1.477681 -3.84,-2.79259 -0.24462,-0.606391 0.4212,-1.3267 1.04456,-1.131248 0.9173,0.02771 1.92439,-0.120628 2.6121,-0.783063 0.67204,-1.172897 -0.0799,-2.645062 0.65743,-3.798891 0.42483,-0.839172 1.13799,-1.678091 0.95701,-2.681626 -0.27587,-1.318164 -1.44898,-2.158246 -2.51799,-2.836682 -2.21014,-1.405634 -4.84404,-1.808356 -7.35343,-2.372454 -1.40183,-0.330788 -2.79828,-0.816631 -4.25781,-0.762603 z"
       style="opacity:1;fill:#f9f9f9;fill-opacity:1;stroke:none;stroke-width:0.72763699;stroke-linecap:butt;stroke-linejoin:round;stroke-miterlimit:4;stroke-dasharray:none;stroke-opacity:1" />
  </g>
</svg>
