<?xml version="1.0" encoding="UTF-8" standalone="no"?>
<!-- Created with Inkscape (http://www.inkscape.org/) -->

<svg
   xmlns:dc="http://purl.org/dc/elements/1.1/"
   xmlns:cc="http://creativecommons.org/ns#"
   xmlns:rdf="http://www.w3.org/1999/02/22-rdf-syntax-ns#"
   xmlns:svg="http://www.w3.org/2000/svg"
   xmlns="http://www.w3.org/2000/svg"
   xmlns:sodipodi="http://sodipodi.sourceforge.net/DTD/sodipodi-0.dtd"
   xmlns:inkscape="http://www.inkscape.org/namespaces/inkscape"
   width="26.065428mm"
   height="26.742287mm"
   viewBox="0 0 26.065427 26.742287"
   version="1.1"
   id="svg1434"
   inkscape:version="0.92.3 (d244b95, 2018-08-02)"
   sodipodi:docname="push.svg">
  <defs
     id="defs1428" />
  <sodipodi:namedview
     id="base"
     pagecolor="#ffffff"
     bordercolor="#666666"
     borderopacity="1.0"
     inkscape:pageopacity="0.0"
     inkscape:pageshadow="2"
     inkscape:zoom="3.959798"
     inkscape:cx="50.566165"
     inkscape:cy="30.3122"
     inkscape:document-units="mm"
     inkscape:current-layer="layer1"
     showgrid="false"
     inkscape:snap-global="false"
     fit-margin-top="0"
     fit-margin-left="0"
     fit-margin-right="0"
     fit-margin-bottom="0"
     inkscape:window-width="1299"
     inkscape:window-height="704"
     inkscape:window-x="67"
     inkscape:window-y="27"
     inkscape:window-maximized="1"
     showguides="false" />
  <metadata
     id="metadata1431">
    <rdf:RDF>
      <cc:Work
         rdf:about="">
        <dc:format>image/svg+xml</dc:format>
        <dc:type
           rdf:resource="http://purl.org/dc/dcmitype/StillImage" />
        <dc:title></dc:title>
      </cc:Work>
    </rdf:RDF>
  </metadata>
  <g
     inkscape:label="Camada 1"
     inkscape:groupmode="layer"
     id="layer1"
     transform="translate(-107.13169,-87.342673)">
    <g
       id="g2051">
      <path
         sodipodi:nodetypes="cssscsccc"
         inkscape:connector-curvature="0"
         id="path1361"
         d="m 111.22452,87.836012 c 0,0 2.00294,0.01439 2.3151,0.755951 0.18934,0.449776 0.0372,3.205556 0.42997,5.270666 0.3891,2.045933 1.24611,6.281261 1.31817,7.612541 0.37189,6.87011 13.3755,10.77622 13.95106,7.1691 -0.23061,0.0256 -7.86851,5.42631 -12.61067,2.05945 -4.00196,-2.84133 -5.13615,-10.30237 -5.30914,-10.58348 -0.37797,-0.614214 -0.0945,-12.284228 -0.0945,-12.284228 z"
         style="opacity:0.75199998;fill:#ffffff;stroke:#000000;stroke-width:0.5;stroke-linecap:butt;stroke-linejoin:miter;stroke-miterlimit:4;stroke-dasharray:none;stroke-opacity:1" />
      <path
         sodipodi:nodetypes="ccszcc"
         inkscape:connector-curvature="0"
         id="path1359"
         d="m 109.52363,88.213988 c 0,0 -0.0945,-0.519718 0.33073,-0.566964 0.42522,-0.04725 3.27195,0.649711 3.21279,2.882068 -0.0593,2.237114 0.43228,7.770043 1.63073,13.721208 1.19844,5.95117 11.53143,9.2049 14.2922,4.98142 -24.3092,8.90869 -17.28113,-11.838863 -19.46645,-21.017732 z"
         style="opacity:0.75199998;fill:#ffffff;stroke:#000000;stroke-width:0.60000002;stroke-linecap:butt;stroke-linejoin:miter;stroke-miterlimit:4;stroke-dasharray:none;stroke-opacity:1" />
      <path
         sodipodi:nodetypes="cscsccsccc"
         inkscape:connector-curvature="0"
         id="path1349"
         d="m 108.76767,88.261236 c -0.75595,6.567336 -1.03943,8.173733 -0.0945,13.937874 0.94495,5.76413 1.88989,7.74851 1.88989,7.74851 0.13351,1.73562 6.71109,6.51623 12.92391,3.27764 5.8132,-3.03028 8.68509,-6.21564 8.68509,-6.21564 -6.32331,2.19176 -9.27217,4.88303 -14.53674,2.87234 -2.76033,-2.46977 -3.27512,-7.43172 -4.66263,-11.037387 -1.51284,-3.931376 -0.94495,-6.142113 -0.85045,-8.315476 0.0945,-2.173364 -3.35454,-2.267856 -3.35454,-2.267856 z"
         style="opacity:0.75199998;fill:#ffffff;stroke:#000000;stroke-width:1;stroke-linecap:butt;stroke-linejoin:miter;stroke-miterlimit:4;stroke-dasharray:none;stroke-opacity:1" />
      <path
         sodipodi:nodetypes="csc"
         inkscape:connector-curvature="0"
         id="path1351"
         d="m 111.04722,110.57904 c -2.45476,-2.47522 -4.82178,-11.093825 -2.40203,-10.658147 2.41975,0.435677 4.89465,7.656307 4.89465,7.656307"
         style="opacity:0.75199998;fill:#ffffff;stroke:#000000;stroke-width:1;stroke-linecap:butt;stroke-linejoin:miter;stroke-miterlimit:4;stroke-dasharray:none;stroke-opacity:1" />
    </g>
  </g>
</svg>
