<?xml version="1.0" encoding="UTF-8" standalone="no"?>
<!-- Created with Inkscape (http://www.inkscape.org/) -->

<svg
   xmlns:dc="http://purl.org/dc/elements/1.1/"
   xmlns:cc="http://creativecommons.org/ns#"
   xmlns:rdf="http://www.w3.org/1999/02/22-rdf-syntax-ns#"
   xmlns:svg="http://www.w3.org/2000/svg"
   xmlns="http://www.w3.org/2000/svg"
   xmlns:sodipodi="http://sodipodi.sourceforge.net/DTD/sodipodi-0.dtd"
   xmlns:inkscape="http://www.inkscape.org/namespaces/inkscape"
   width="20.957262mm"
   height="31.582064mm"
   viewBox="0 0 20.957262 31.582063"
   version="1.1"
   id="svg8"
   inkscape:version="0.92.3 (d244b95, 2018-08-02)"
   sodipodi:docname="character.svg">
  <defs
     id="defs2" />
  <sodipodi:namedview
     id="base"
     pagecolor="#ffffff"
     bordercolor="#666666"
     borderopacity="1.0"
     inkscape:pageopacity="0.0"
     inkscape:pageshadow="2"
     inkscape:zoom="1.4142136"
     inkscape:cx="15.956858"
     inkscape:cy="84.636272"
     inkscape:document-units="mm"
     inkscape:current-layer="layer1"
     showgrid="false"
     fit-margin-top="1"
     fit-margin-left="1"
     fit-margin-right="1"
     fit-margin-bottom="1"
     inkscape:window-width="1299"
     inkscape:window-height="704"
     inkscape:window-x="67"
     inkscape:window-y="27"
     inkscape:window-maximized="1"
     showguides="false" />
  <metadata
     id="metadata5">
    <rdf:RDF>
      <cc:Work
         rdf:about="">
        <dc:format>image/svg+xml</dc:format>
        <dc:type
           rdf:resource="http://purl.org/dc/dcmitype/StillImage" />
        <dc:title></dc:title>
      </cc:Work>
    </rdf:RDF>
  </metadata>
  <g
     inkscape:label="Camada 1"
     inkscape:groupmode="layer"
     id="layer1"
     transform="translate(-25.026501,-43.665287)">
    <path
       sodipodi:nodetypes="csc"
       inkscape:connector-curvature="0"
       id="path843"
       d="m 36.580414,67.801859 c 0.936838,2.891026 0.871006,5.502101 -0.14704,5.832 -1.018047,0.329898 -2.602794,-1.746306 -3.539633,-4.637332"
       style="fill:#808080;fill-opacity:1;stroke:#000000;stroke-width:1;stroke-miterlimit:4;stroke-dasharray:none;stroke-opacity:1" />
    <path
       style="fill:#b3b3b3;fill-opacity:1;stroke:#000000;stroke-width:1;stroke-miterlimit:4;stroke-dasharray:none;stroke-opacity:1"
       d="m 36.780447,65.318284 c 0,3.284298 -0.678074,5.086851 -3.962372,5.086851 -3.284298,0 -4.557686,-1.207241 -4.557686,-4.491539 0,-3.284298 1.253242,-9.855062 4.53754,-9.855061 3.284297,0 3.982518,5.975451 3.982518,9.259749 z"
       id="path830"
       inkscape:connector-curvature="0"
       sodipodi:nodetypes="sssss" />
    <path
       style="fill:#cccccc;stroke:#000000;stroke-width:0.5;stroke-linecap:butt;stroke-linejoin:miter;stroke-miterlimit:4;stroke-dasharray:none;stroke-opacity:1"
       d="m 40.074678,63.394263 c -0.28179,-0.702464 -0.708244,-1.464889 -0.132292,-1.752865 0.286632,-0.206873 0.573264,0.22042 0.859896,0.330729 l 0.239779,1.397331 z"
       id="path1805"
       inkscape:connector-curvature="0"
       sodipodi:nodetypes="ccccc" />
    <path
       style="fill:#b3b3b3;fill-opacity:1;stroke:#000000;stroke-width:1;stroke-linecap:round;stroke-miterlimit:4;stroke-dasharray:none;stroke-opacity:1"
       d="m 31.2612,61.697892 c 1.224655,-0.0073 7.651103,2.075834 9.898976,1.915775 0.150606,-0.01072 -1.080789,-3.45913 -0.739637,-3.872719 0.28025,-0.339755 1.039198,0.383255 1.375545,1.235677 0.260522,-1.402605 -0.22991,-1.702806 0.861697,-1.571797 0.261333,0.03136 0.331214,1.113441 0.489155,2.041505 0.40466,-0.862102 1.169737,-1.085025 1.325244,-0.574262 0.08562,0.28122 -0.788294,4.971805 -1.793308,5.585188 -0.627024,0.486413 -7.653193,-1.782343 -9.388401,-1.772032"
       id="path845"
       inkscape:connector-curvature="0"
       sodipodi:nodetypes="csscscscc"
       inkscape:transform-center-x="-2.919898"
       inkscape:transform-center-y="0.19267415" />
    <path
       style="fill:#b3b3b3;fill-opacity:1;stroke:#000000;stroke-width:1;stroke-miterlimit:4;stroke-dasharray:none;stroke-opacity:1"
       d="m 40.123837,52.882693 c 0,4.465169 -1.581804,6.548104 -3.808591,7.450139 -2.308845,0.935275 -5.291075,0.810764 -7.160315,-0.703308 -1.481296,-1.19984 -2.62843,-4.739339 -2.62843,-6.713422 0,-4.465168 2.95156,-7.750814 7.416728,-7.750815 4.465168,0 6.180608,3.252238 6.180608,7.717406 z"
       id="path828"
       inkscape:connector-curvature="0"
       sodipodi:nodetypes="ssssss" />
    <path
       style="fill:#b3b3b3;fill-opacity:1;stroke:#000000;stroke-width:1;stroke-linecap:round;stroke-miterlimit:4;stroke-dasharray:none;stroke-opacity:1"
       d="m 32.893741,68.996527 c -0.745052,2.946284 -2.401587,5.026346 -3.427261,4.720988 -1.025674,-0.305358 -0.962702,-3.275876 -0.287035,-5.826788"
       id="path832"
       inkscape:connector-curvature="0"
       sodipodi:nodetypes="csc" />
    <ellipse
       style="fill:#000000;fill-opacity:1;stroke:#000000;stroke-width:1;stroke-miterlimit:4;stroke-dasharray:none;stroke-opacity:1"
       id="path840"
       cx="36.78297"
       cy="51.963955"
       rx="1.1358955"
       ry="2.2884953" />
    <path
       style="fill:#b3b3b3;stroke:#000000;stroke-width:0.5;stroke-linecap:butt;stroke-linejoin:miter;stroke-miterlimit:4;stroke-dasharray:none;stroke-opacity:1"
       d="m 35.807485,65.552813 c 0.04677,-0.257247 0.124168,-1.902444 0.65481,-1.917659 0.516071,-0.0148 0.852975,1.721781 0.889436,1.661571 0.34303,-0.56646 0.361382,-1.553564 0.864521,-1.497868 0.561803,0.09517 0.731058,0.861095 0.979869,1.594375 0.09036,0.266294 0.578084,-1.600341 0.734545,-1.389259 0.672355,0.907076 0.833559,2.328321 0.600808,3.419727 -0.228261,0.441796 -1.038425,0.161844 -1.345635,-0.276028 -0.447987,0.248396 -1.039795,0.04396 -1.725278,-0.523598 -0.776887,0.435178 -1.653076,-1.071261 -1.653076,-1.071261 z"
       id="path1801"
       inkscape:connector-curvature="0"
       sodipodi:nodetypes="csscsscccc" />
    <path
       style="fill:#b3b3b3;stroke:#000000;stroke-width:0.5;stroke-linecap:butt;stroke-linejoin:miter;stroke-miterlimit:4;stroke-dasharray:none;stroke-opacity:1"
       d="m 38.307358,63.60727 c 0.361765,0.240392 0.660529,0.371618 0.921889,0.707021 0.73827,-0.72144 0.202076,-1.106817 -0.165794,-1.817877 -0.122037,-0.158214 -0.936646,-0.458535 -1.249597,-0.362329 -1.596124,0.987538 -0.577064,1.301848 0.493502,1.473185 z"
       id="path1803"
       inkscape:connector-curvature="0"
       sodipodi:nodetypes="ccccc" />
  </g>
</svg>
