<?xml version="1.0" encoding="UTF-8" standalone="no"?>
<!-- Created with Inkscape (http://www.inkscape.org/) -->

<svg
   xmlns:dc="http://purl.org/dc/elements/1.1/"
   xmlns:cc="http://creativecommons.org/ns#"
   xmlns:rdf="http://www.w3.org/1999/02/22-rdf-syntax-ns#"
   xmlns:svg="http://www.w3.org/2000/svg"
   xmlns="http://www.w3.org/2000/svg"
   xmlns:sodipodi="http://sodipodi.sourceforge.net/DTD/sodipodi-0.dtd"
   xmlns:inkscape="http://www.inkscape.org/namespaces/inkscape"
   width="16.597336mm"
   height="34.017685mm"
   viewBox="0 0 16.597336 34.017684"
   version="1.1"
   id="svg8"
   inkscape:version="0.92.3 (d244b95, 2018-08-02)"
   sodipodi:docname="character_jump1.svg">
  <defs
     id="defs2" />
  <sodipodi:namedview
     id="base"
     pagecolor="#ffffff"
     bordercolor="#666666"
     borderopacity="1.0"
     inkscape:pageopacity="0.0"
     inkscape:pageshadow="2"
     inkscape:zoom="4.0000001"
     inkscape:cx="-0.73088479"
     inkscape:cy="65.114596"
     inkscape:document-units="mm"
     inkscape:current-layer="layer1"
     showgrid="false"
     fit-margin-top="1"
     fit-margin-left="1"
     fit-margin-right="1"
     fit-margin-bottom="1"
     inkscape:window-width="1299"
     inkscape:window-height="704"
     inkscape:window-x="67"
     inkscape:window-y="27"
     inkscape:window-maximized="1"
     inkscape:snap-global="false" />
  <metadata
     id="metadata5">
    <rdf:RDF>
      <cc:Work
         rdf:about="">
        <dc:format>image/svg+xml</dc:format>
        <dc:type
           rdf:resource="http://purl.org/dc/dcmitype/StillImage" />
        <dc:title />
      </cc:Work>
    </rdf:RDF>
  </metadata>
  <g
     inkscape:label="Camada 1"
     inkscape:groupmode="layer"
     id="layer1"
     transform="translate(-25.886397,-41.813204)">
    <path
       sodipodi:nodetypes="cssc"
       inkscape:connector-curvature="0"
       id="path843"
       d="m 34.136875,65.328821 c 0.950184,0.66462 2.751864,1.565047 3.584556,2.585136 1.38916,1.701791 -0.490096,5.613394 -1.654209,5.46788 -1.061901,-0.132738 0.256918,-4.458403 -4.151607,-4.87736"
       style="fill:#808080;fill-opacity:1;stroke:#000000;stroke-width:1;stroke-miterlimit:4;stroke-dasharray:none;stroke-opacity:1"
       inkscape:transform-center-x="-1.3704531"
       inkscape:transform-center-y="1.1290587" />
    <path
       inkscape:transform-center-x="-1.2612909"
       inkscape:transform-center-y="-0.77486453"
       sodipodi:nodetypes="ccc"
       inkscape:connector-curvature="0"
       id="path856"
       d="m 34.475748,60.464895 c 1.237034,-1.216882 4.496306,-2.702589 5.017827,-2.172431 0.52152,0.530157 -2.172811,3.62387 -3.409847,4.840749"
       style="fill:#808080;fill-opacity:1;stroke:#000000;stroke-width:1;stroke-linecap:round;stroke-miterlimit:4;stroke-dasharray:none;stroke-opacity:1" />
    <path
       style="fill:#b3b3b3;fill-opacity:1;stroke:#000000;stroke-width:1;stroke-miterlimit:4;stroke-dasharray:none;stroke-opacity:1"
       d="m 36.846593,64.193805 c 0,3.284298 -0.678074,5.086851 -3.962372,5.086851 -3.284298,0 -4.557686,-1.207241 -4.557686,-4.491539 0,-3.284298 1.319388,-10.384229 4.603686,-10.384228 3.284297,0 3.916372,6.504618 3.916372,9.788916 z"
       id="path830"
       inkscape:connector-curvature="0"
       sodipodi:nodetypes="sssss" />
    <path
       style="fill:#b3b3b3;fill-opacity:1;stroke:#000000;stroke-width:1;stroke-miterlimit:4;stroke-dasharray:none;stroke-opacity:1"
       d="m 40.983733,51.03061 c 0,4.465169 -1.581804,6.548104 -3.808591,7.450139 -2.308845,0.935275 -5.291075,0.810764 -7.160315,-0.703308 -1.481296,-1.19984 -2.62843,-4.739339 -2.62843,-6.713422 0,-4.465168 2.95156,-7.750814 7.416728,-7.750815 4.465168,0 6.180608,3.252238 6.180608,7.717406 z"
       id="path828"
       inkscape:connector-curvature="0"
       sodipodi:nodetypes="ssssss" />
    <path
       style="fill:#b3b3b3;fill-opacity:1;stroke:#000000;stroke-width:1;stroke-linecap:round;stroke-miterlimit:4;stroke-dasharray:none;stroke-opacity:1"
       d="m 31.264093,60.883227 c 1.088839,-1.351104 4.155567,-3.201876 4.734611,-2.735229 0.579045,0.466644 -1.741518,3.849759 -2.83036,5.200861"
       id="path845"
       inkscape:connector-curvature="0"
       sodipodi:nodetypes="ccc"
       inkscape:transform-center-y="-0.98545864"
       inkscape:transform-center-x="-1.0294702" />
    <path
       style="fill:#b3b3b3;fill-opacity:1;stroke:#000000;stroke-width:1;stroke-linecap:round;stroke-miterlimit:4;stroke-dasharray:none;stroke-opacity:1"
       d="m 33.530107,65.713288 c 1.080938,0.507262 3.095747,2.184003 2.945246,3.608609 -0.232549,2.201237 -1.966167,5.607937 -3.457062,4.927308 -0.973514,-0.444433 1.096865,-3.951396 -1.279292,-5.099245"
       id="path832"
       inkscape:connector-curvature="0"
       sodipodi:nodetypes="cssc"
       inkscape:transform-center-x="-2.5868263"
       inkscape:transform-center-y="1.240028" />
    <ellipse
       style="fill:#000000;fill-opacity:1;stroke:#000000;stroke-width:1;stroke-miterlimit:4;stroke-dasharray:none;stroke-opacity:1"
       id="path840"
       cx="37.642868"
       cy="50.11187"
       rx="1.1358955"
       ry="2.2884953" />
  </g>
</svg>
